<svg width="203" height="66" viewBox="0 0 203 66" fill="none" xmlns="http://www.w3.org/2000/svg">
<path d="M30.857 35.6055L39.5301 57.7513L38.2384 60.3354L29.3906 36.5071L30.857 35.6055Z" fill="#183B8B"/>
<path d="M38.8549 58.9722L45.4186 47.0662L34.6156 36.8787C29.9304 33.1381 24.4223 34.4 21.3615 37.7663C18.4351 40.9847 17.8643 46.6014 21.5678 50.1171C25.8129 54.1467 31.5485 53.2753 33.6891 51.3281L28.8445 38.0212C28.1582 36.5163 30.2644 36.0751 30.6218 36.8852L38.8549 58.9722Z" fill="#183B8B"/>
<path d="M24.7964 30.6354L2.86259 39.5078L0.289062 38.2227L23.8923 29.1641L24.7964 30.6354Z" fill="#183B8B"/>
<path d="M1.64844 38.8361L13.5102 45.3728L23.5579 34.4296C27.2429 29.6876 25.9558 24.1481 22.5945 21.0861C19.3811 18.1586 13.8009 17.6187 10.3333 21.3705C6.35874 25.6709 7.25957 31.4422 9.20607 33.5859L22.3879 28.6242C23.8779 27.9239 24.3289 30.0424 23.5267 30.4073L1.64844 38.8361Z" fill="#183B8B"/>
<path d="M29.9387 25.0345L21.2656 2.88867L22.5575 0.304688L31.4051 24.1331L29.9387 25.0345Z" fill="#183B8B"/>
<path d="M21.9386 1.66797L15.375 13.5741L26.1779 23.7615C30.8631 27.5023 36.3712 26.2402 39.432 22.8739C42.3584 19.6557 42.9291 14.0388 39.2256 10.5232C34.9806 6.49353 29.245 7.36505 27.1046 9.31222L31.949 22.619C32.6353 24.1241 30.529 24.5653 30.1717 23.755L21.9386 1.66797Z" fill="#183B8B"/>
<path d="M35.8203 29.8255L57.7543 20.9531L60.3278 22.2382L36.7246 31.2967L35.8203 29.8255Z" fill="#183B8B"/>
<path d="M58.9721 21.6226L47.1103 15.0859L37.0627 26.0292C33.3775 30.7712 34.6648 36.3107 38.0258 39.3727C41.2395 42.3002 46.8197 42.84 50.2872 39.0883C54.2617 34.788 53.3609 29.0166 51.4144 26.8729L38.2326 31.8345C36.7427 32.5351 36.2916 30.4164 37.0936 30.0515L58.9721 21.6226Z" fill="#183B8B"/>
<path d="M27.1849 26.0625C27.1849 26.0625 29.2222 27.1178 30.7463 27.3022C32.2704 27.4863 34.6638 26.9666 34.6638 26.9666C34.6638 26.9666 33.5293 29.0355 33.264 30.5582C32.9987 32.0811 33.3618 34.4389 33.3618 34.4389C33.3618 34.4389 31.3284 33.3788 29.8045 33.1946C28.2804 33.0104 25.8828 33.535 25.8828 33.535C25.8828 33.535 27.0212 31.4659 27.2865 29.943C27.5519 28.4204 27.1849 26.0625 27.1849 26.0625Z" fill="#183B8B"/>
<path d="M76.0347 32.3094H83.5421L93.4108 43.316H85.752L76.0347 32.3094ZM79.9398 42.0964C77.2557 42.0964 74.8945 41.5984 72.8561 40.6024C70.8381 39.6065 69.2639 38.2141 68.1337 36.4254C67.0238 34.6368 66.4688 32.5533 66.4688 30.1752C66.4688 27.797 67.0238 25.7135 68.1337 23.9249C69.2639 22.1362 70.8381 20.7438 72.8561 19.7479C74.8945 18.752 77.2557 18.2539 79.9398 18.2539C82.6441 18.2539 85.0053 18.752 87.0234 19.7479C89.0415 20.7438 90.6156 22.1362 91.7458 23.9249C92.876 25.7135 93.441 27.797 93.441 30.1752C93.441 32.5533 92.876 34.6368 91.7458 36.4254C90.6156 38.2141 89.0415 39.6065 87.0234 40.6024C85.0053 41.5984 82.6441 42.0964 79.9398 42.0964ZM79.9398 36.4559C81.4129 36.4559 82.6843 36.2018 83.754 35.6937C84.8237 35.1856 85.641 34.4639 86.206 33.529C86.7914 32.594 87.0839 31.476 87.0839 30.1752C87.0839 28.8743 86.7914 27.7563 86.206 26.8214C85.641 25.8864 84.8237 25.1647 83.754 24.6566C82.6843 24.1485 81.4129 23.8944 79.9398 23.8944C78.4867 23.8944 77.2254 24.1485 76.1558 24.6566C75.0861 25.1647 74.2588 25.8864 73.6735 26.8214C73.0882 27.7563 72.7956 28.8743 72.7956 30.1752C72.7956 31.476 73.0882 32.594 73.6735 33.529C74.2588 34.4639 75.0861 35.1856 76.1558 35.6937C77.2254 36.2018 78.4867 36.4559 79.9398 36.4559ZM102.639 31.3947C102.639 32.4314 102.831 33.3358 103.214 34.1083C103.618 34.8603 104.203 35.4396 104.97 35.8461C105.757 36.2527 106.716 36.4559 107.846 36.4559C108.996 36.4559 109.955 36.2527 110.721 35.8461C111.488 35.4396 112.064 34.8603 112.447 34.1083C112.831 33.3358 113.022 32.4314 113.022 31.3947V18.7417H119.319V31.6996C119.319 33.7931 118.834 35.6225 117.866 37.1877C116.917 38.7324 115.585 39.9419 113.87 40.8159C112.154 41.6696 110.146 42.0964 107.846 42.0964C105.565 42.0964 103.557 41.6696 101.822 40.8159C100.106 39.9419 98.7641 38.7324 97.7954 37.1877C96.847 35.6225 96.3726 33.7931 96.3726 31.6996V18.7417H102.639V31.3947ZM126.282 37.2181V32.1265H141.933V37.2181H126.282ZM138.361 18.7417L148.684 41.6086H141.993L133.336 21.4248H135.152L126.464 41.6086H119.774L130.097 18.7417H138.361ZM171.873 37.1877L169.935 37.584V18.7417H176.02V41.6086H168.119L155.011 22.7968L156.918 22.4004V41.6086H150.834V18.7417H158.947L171.873 37.1877ZM187.362 21.5162H193.659V41.6086H187.362V21.5162ZM178.705 18.7417H202.317V24.3517H178.705V18.7417Z" fill="#183B8B"/>
</svg>
